<svg xmlns="http://www.w3.org/2000/svg" width="100" height="100" viewBox="0 0 100 100"><path fill="#fff" d="M92.3 25.4a5.2 5.2 0 0 0-2.6 9.6l-3.3 10.3-1.7-.4-2.1-7.9a5.2 5.2 0 0 0-2.4-9.7 5.2 5.2 0 1 0 0 10.3h.1l1.9 7.4c-3.2.8-5.9 3.9-8.4 6.7s-5.4 6.1-8.7 6.6c-.8-8.9-3.8-15.9-8.9-21a29.9 29.9 0 0 0-19.6-8 23.5 23.5 0 0 0-23.4 23.4 16.9 16.9 0 0 0 4.9 11.8C10 66.9 4.8 69.6 2.7 72.6a1.3 1.3 0 0 0 1 2h83.1a1.3 1.3 0 0 0 1.2-1.1 1.3 1.3 0 0 0-.9-1.4c-2.1-.6-5.4-2.1-6.1-3.5a.8.8 0 0 1 0-.7 22.3 22.3 0 0 1 2.8-3.6c3.4-4 8-9.5 7.4-13.9a5.6 5.6 0 0 0-2.6-4h-.1l3.4-10.7h.4a5.2 5.2 0 1 0 0-10.3zm-14.9 7.1a2.8 2.8 0 0 1 2.8-2.8 2.7 2.7 0 0 1 2.7 2.8 2.7 2.7 0 0 1-2.7 2.6 2.8 2.8 0 0 1-2.8-2.6zm-40.9-.6c.9 0 10.5.2 17.8 7.3 5.3 5.2 8.1 13 8.4 22.9h-19a16.8 16.8 0 0 0 2.9-9.3 10.2 10.2 0 0 0-20.3 0 1.2 1.2 0 0 0 1.2 1.2 1.3 1.3 0 0 0 1.2-1.2 7.7 7.7 0 1 1 15.3 0 14.3 14.3 0 0 1-28.6 0 21.1 21.1 0 0 1 21.1-20.9zm52.3 18.9c.5 3.4-3.9 8.5-6.8 12a20 20 0 0 0-3 4.2 2.9 2.9 0 0 0 0 2.7 7.4 7.4 0 0 0 2.2 2.5H6.7c2.7-2 7.3-4 13.6-5.6a16.9 16.9 0 0 0 9.5 2.9 16.5 16.5 0 0 0 11.8-4.9h22.3a1.2 1.2 0 0 0 1.2-1.2 20.9 20.9 0 0 0-.1-2.5c4.2-.6 7.5-4.3 10.5-7.5 4.4-5 7.2-7.8 11.7-4.8a2.7 2.7 0 0 1 1.6 2.2zm3.5-17.5a2.8 2.8 0 0 1 0-5.5 2.8 2.8 0 1 1 0 5.5z"/></svg>